<svg xmlns="http://www.w3.org/2000/svg" xmlns:xlink="http://www.w3.org/1999/xlink" width="1470" height="1384.31"><rect width="1470" height="1384.31" rx="0" ry="0" class="a"/><svg height="1324.31" viewBox="0 0 141 132.431" width="1410" x="30" xmlns="http://www.w3.org/2000/svg" xmlns:xlink="http://www.w3.org/1999/xlink" y="30"><style>@keyframes i{0%{transform:translateX(0)}12.7%{transform:translateX(-141px)}36.1%{transform:translateX(-282px)}39.4%{transform:translateX(-423px)}41.9%{transform:translateX(-564px)}43.8%{transform:translateX(-705px)}48.3%{transform:translateX(-846px)}50.8%{transform:translateX(-987px)}54.2%{transform:translateX(-1833px)}54.6%{transform:translateX(-2538px)}54.9%{transform:translateX(-2820px)}95.1%{transform:translateX(-2961px)}98.3%{transform:translateX(-3102px)}to{transform:translateX(-3243px)}}.a{fill:#000}.c,.d{fill:#fff;white-space:pre}.d{fill:#686868;font-weight:700}</style><g font-family="Monaco,Consolas,Menlo,'Bitstream Vera Sans Mono','Powerline Symbols',monospace" font-size="1.67"><defs><symbol id="20"><text x="2.004" y="1.67" class="c">feedback</text><text x="32.064" y="1.67" class="c">Provide</text><text x="40.08" y="1.67" class="c">us</text><text x="43.086" y="1.67" class="c">with</text><text x="48.096" y="1.67" class="c">feedback</text><text x="57.114" y="1.67" class="c">on</text><text x="60.12" y="1.67" class="c">the</text><text x="64.128" y="1.67" class="c">CLI</text></symbol><symbol id="1"><text y="1.67" class="c">stripe</text></symbol><symbol id="3"><text y="1.67" class="d">Usage:</text></symbol><symbol id="4"><text x="2.004" y="1.67" class="c">stripe</text><text x="9.018" y="1.67" class="c">[command]</text></symbol><symbol id="5"><text y="1.67" class="d">Webhook</text><text x="8.016" y="1.67" class="d">commands:</text></symbol><symbol id="6"><text x="2.004" y="1.67" class="c">listen</text><text x="32.064" y="1.67" class="c">Listen</text><text x="39.078" y="1.67" class="c">for</text><text x="43.086" y="1.67" class="c">webhook</text><text x="51.102" y="1.67" class="c">events</text></symbol><symbol id="7"><text x="2.004" y="1.67" class="c">trigger</text><text x="32.064" y="1.67" class="c">Trigger</text><text x="40.08" y="1.67" class="c">test</text><text x="45.09" y="1.67" class="c">webhook</text><text x="53.106" y="1.67" class="c">events</text><text x="60.12" y="1.67" class="c">to</text><text x="63.126" y="1.67" class="c">fire</text></symbol><symbol id="8"><text y="1.67" class="d">Stripe</text><text x="7.014" y="1.67" class="d">commands:</text></symbol><symbol id="9"><text x="2.004" y="1.67" class="c">logs</text><text x="32.064" y="1.67" class="c">Interact</text><text x="41.082" y="1.67" class="c">with</text><text x="46.092" y="1.67" class="c">Stripe</text><text x="53.106" y="1.67" class="c">request</text><text x="61.122" y="1.67" class="c">logs</text></symbol><symbol id="10"><text x="2.004" y="1.67" class="c">status</text><text x="32.064" y="1.67" class="c">Check</text><text x="38.076" y="1.67" class="c">the</text><text x="42.084" y="1.67" class="c">status</text><text x="49.098" y="1.67" class="c">of</text><text x="52.104" y="1.67" class="c">the</text><text x="56.112" y="1.67" class="c">Stripe</text><text x="63.126" y="1.67" class="c">API</text></symbol><symbol id="11"><text y="1.67" class="d">Resource</text><text x="9.018" y="1.67" class="d">commands:</text></symbol><symbol id="12"><text x="2.004" y="1.67" class="c">get</text><text x="32.064" y="1.67" class="c">Quickly</text><text x="40.08" y="1.67" class="c">retrieve</text><text x="49.098" y="1.67" class="c">resources</text><text x="59.118" y="1.67" class="c">from</text><text x="64.128" y="1.67" class="c">Stripe</text></symbol><symbol id="13"><text x="2.004" y="1.67" class="c">charges</text><text x="32.064" y="1.67" class="c">Make</text><text x="37.074" y="1.67" class="c">requests</text><text x="46.092" y="1.67" class="c">(capture,</text><text x="56.112" y="1.67" class="c">create,</text><text x="64.128" y="1.67" class="c">list,</text><text x="70.14" y="1.67" class="c">etc)</text><text x="75.15" y="1.67" class="c">on</text><text x="78.156" y="1.67" class="c">charges</text></symbol><symbol id="14"><text x="2.004" y="1.67" class="c">customers</text><text x="32.064" y="1.67" class="c">Make</text><text x="37.074" y="1.67" class="c">requests</text><text x="46.092" y="1.67" class="c">(create,</text><text x="55.11" y="1.67" class="c">delete,</text><text x="63.126" y="1.67" class="c">list,</text><text x="69.138" y="1.67" class="c">etc)</text><text x="74.148" y="1.67" class="c">on</text><text x="77.154" y="1.67" class="c">customers</text></symbol><symbol id="15"><text x="2.004" y="1.67" class="c">payment_intents</text><text x="32.064" y="1.67" class="c">Make</text><text x="37.074" y="1.67" class="c">requests</text><text x="46.092" y="1.67" class="c">(cancel,</text><text x="55.11" y="1.67" class="c">capture,</text><text x="64.128" y="1.67" class="c">confirm,</text><text x="73.146" y="1.67" class="c">etc)</text><text x="78.156" y="1.67" class="c">on</text><text x="81.162" y="1.67" class="c">payment</text><text x="89.178" y="1.67" class="c">intents</text></symbol><symbol id="16"><text x="2.004" y="1.67" class="c">...</text><text x="32.064" y="1.67" class="c">To</text><text x="35.07" y="1.67" class="c">see</text><text x="39.078" y="1.67" class="c">more</text><text x="44.088" y="1.67" class="c">resource</text><text x="53.106" y="1.67" class="c">commands,</text><text x="63.126" y="1.67" class="c">run</text><text x="67.134" y="1.67" class="c">`stripe</text><text x="75.15" y="1.67" class="c">resources</text><text x="85.17" y="1.67" class="c">help`</text></symbol><symbol id="17"><text y="1.67" class="d">Other</text><text x="6.012" y="1.67" class="d">commands:</text></symbol><symbol id="18"><text x="2.004" y="1.67" class="c">completion</text><text x="32.064" y="1.67" class="c">Generate</text><text x="41.082" y="1.67" class="c">bash</text><text x="46.092" y="1.67" class="c">and</text><text x="50.1" y="1.67" class="c">zsh</text><text x="54.108" y="1.67" class="c">completion</text><text x="65.13" y="1.67" class="c">scripts</text></symbol><symbol id="19"><text x="2.004" y="1.67" class="c">config</text><text x="32.064" y="1.67" class="c">Manually</text><text x="41.082" y="1.67" class="c">change</text><text x="48.096" y="1.67" class="c">the</text><text x="52.104" y="1.67" class="c">config</text><text x="59.118" y="1.67" class="c">values</text><text x="66.132" y="1.67" class="c">for</text><text x="70.14" y="1.67" class="c">the</text><text x="74.148" y="1.67" class="c">CLI</text></symbol><symbol id="2"><text y="1.67" class="c">The</text><text x="4.008" y="1.67" class="c">official</text><text x="13.026" y="1.67" class="c">command-line</text><text x="26.052" y="1.67" class="c">tool</text><text x="31.062" y="1.67" class="c">to</text><text x="34.068" y="1.67" class="c">interact</text><text x="43.086" y="1.67" class="c">with</text><text x="48.096" y="1.67" class="c">Stripe.</text></symbol><symbol id="21"><text x="2.004" y="1.67" class="c">help</text><text x="32.064" y="1.67" class="c">Help</text><text x="37.074" y="1.67" class="c">about</text><text x="43.086" y="1.67" class="c">any</text><text x="47.094" y="1.67" class="c">command</text></symbol><symbol id="22"><text x="2.004" y="1.67" class="c">login</text><text x="32.064" y="1.67" class="c">Login</text><text x="38.076" y="1.67" class="c">to</text><text x="41.082" y="1.67" class="c">your</text><text x="46.092" y="1.67" class="c">Stripe</text><text x="53.106" y="1.67" class="c">account</text></symbol><symbol id="23"><text x="2.004" y="1.67" class="c">open</text><text x="32.064" y="1.67" class="c">Quickly</text><text x="40.08" y="1.67" class="c">open</text><text x="45.09" y="1.67" class="c">Stripe</text><text x="52.104" y="1.67" class="c">pages</text></symbol><symbol id="24"><text x="2.004" y="1.67" class="c">samples</text><text x="32.064" y="1.67" class="c">Sample</text><text x="39.078" y="1.67" class="c">integrations</text><text x="52.104" y="1.67" class="c">built</text><text x="58.116" y="1.67" class="c">by</text><text x="61.122" y="1.67" class="c">Stripe</text></symbol><symbol id="25"><text x="2.004" y="1.67" class="c">version</text><text x="32.064" y="1.67" class="c">Get</text><text x="36.072" y="1.67" class="c">the</text><text x="40.08" y="1.67" class="c">version</text><text x="48.096" y="1.67" class="c">of</text><text x="51.102" y="1.67" class="c">the</text><text x="55.11" y="1.67" class="c">Stripe</text><text x="62.124" y="1.67" class="c">CLI</text></symbol><symbol id="26"><text y="1.67" class="d">Flags:</text></symbol><symbol id="27"><text x="6.012" y="1.67" class="c">--api-key</text><text x="16.032" y="1.67" class="c">string</text><text x="30.06" y="1.67" class="c">Your</text><text x="35.07" y="1.67" class="c">API</text><text x="39.078" y="1.67" class="c">key</text><text x="43.086" y="1.67" class="c">to</text><text x="46.092" y="1.67" class="c">use</text><text x="50.1" y="1.67" class="c">for</text><text x="54.108" y="1.67" class="c">the</text><text x="58.116" y="1.67" class="c">command</text></symbol><symbol id="28"><text x="6.012" y="1.67" class="c">--color</text><text x="14.028" y="1.67" class="c">string</text><text x="30.06" y="1.67" class="c">turn</text><text x="35.07" y="1.67" class="c">on/off</text><text x="42.084" y="1.67" class="c">color</text><text x="48.096" y="1.67" class="c">output</text><text x="55.11" y="1.67" class="c">(on,</text><text x="60.12" y="1.67" class="c">off,</text><text x="65.13" y="1.67" class="c">auto)</text></symbol><symbol id="29"><text x="6.012" y="1.67" class="c">--config</text><text x="15.03" y="1.67" class="c">string</text><text x="30.06" y="1.67" class="c">config</text><text x="37.074" y="1.67" class="c">file</text><text x="42.084" y="1.67" class="c">(default</text><text x="51.102" y="1.67" class="c">is</text><text x="54.108" y="1.67" class="c">$HOME/.config/stripe/config.toml)</text></symbol><symbol id="30"><text x="6.012" y="1.67" class="c">--device-name</text><text x="20.04" y="1.67" class="c">string</text><text x="30.06" y="1.67" class="c">device</text><text x="37.074" y="1.67" class="c">name</text></symbol><symbol id="31"><text x="2.004" y="1.67" class="c">-h,</text><text x="6.012" y="1.67" class="c">--help</text><text x="30.06" y="1.67" class="c">help</text><text x="35.07" y="1.67" class="c">for</text><text x="39.078" y="1.67" class="c">stripe</text></symbol><symbol id="32"><text x="6.012" y="1.67" class="c">--log-level</text><text x="18.036" y="1.67" class="c">string</text><text x="30.06" y="1.67" class="c">log</text><text x="34.068" y="1.67" class="c">level</text><text x="40.08" y="1.67" class="c">(debug,</text><text x="48.096" y="1.67" class="c">info,</text><text x="54.108" y="1.67" class="c">warn,</text><text x="60.12" y="1.67" class="c">error)</text><text x="67.134" y="1.67" class="c">(default</text><text x="76.152" y="1.67" class="c">&quot;info&quot;)</text></symbol><symbol id="33"><text x="2.004" y="1.67" class="c">-p,</text><text x="6.012" y="1.67" class="c">--project-name</text><text x="21.042" y="1.67" class="c">string</text><text x="30.06" y="1.67" class="c">the</text><text x="34.068" y="1.67" class="c">project</text><text x="42.084" y="1.67" class="c">name</text><text x="47.094" y="1.67" class="c">to</text><text x="50.1" y="1.67" class="c">read</text><text x="55.11" y="1.67" class="c">from</text><text x="60.12" y="1.67" class="c">for</text><text x="64.128" y="1.67" class="c">config</text><text x="71.142" y="1.67" class="c">(default</text><text x="80.16" y="1.67" class="c">&quot;default&quot;)</text></symbol><symbol id="34"><text x="2.004" y="1.67" class="c">-v,</text><text x="6.012" y="1.67" class="c">--version</text><text x="30.06" y="1.67" class="c">Get</text><text x="34.068" y="1.67" class="c">the</text><text x="38.076" y="1.67" class="c">version</text><text x="46.092" y="1.67" class="c">of</text><text x="49.098" y="1.67" class="c">the</text><text x="53.106" y="1.67" class="c">Stripe</text><text x="60.12" y="1.67" class="c">CLI</text></symbol><symbol id="35"><text y="1.67" class="c">Use</text><text x="4.008" y="1.67" class="c">&quot;stripe</text><text x="12.024" y="1.67" class="c">[command]</text><text x="22.044" y="1.67" class="c">--help&quot;</text><text x="30.06" y="1.67" class="c">for</text><text x="34.068" y="1.67" class="c">more</text><text x="39.078" y="1.67" class="c">information</text><text x="51.102" y="1.67" class="c">about</text><text x="57.114" y="1.67" class="c">a</text><text x="59.118" y="1.67" class="c">command.</text></symbol><symbol id="36"><text y="1.67" style="white-space:pre" fill="#1dc121" font-weight="700">➜</text><text x="3.006" y="1.67" style="white-space:pre" fill="#20c5c6" font-weight="700">~</text></symbol><symbol id="a"><path fill="transparent" d="M0 0h141v61H0z"/></symbol><symbol id="b"><path fill="#f81ce5" d="M0 0h1.102v2.171H0z"/></symbol></defs><path class="a" d="M0 0h141v132.431H0z"/><g style="animation-duration:6.702389s;animation-iteration-count:infinite;animation-name:i;animation-timing-function:steps(1,end)"><svg width="3384"><svg><use xlink:href="#a"/><use xlink:href="#b" x="-.004"/></svg><svg x="141"><use xlink:href="#a"/><use xlink:href="#b" x="-.004"/></svg><svg x="282"><use xlink:href="#a"/><use xlink:href="#b" x=".996"/><text y="1.67" class="c">s</text></svg><svg x="423"><use xlink:href="#a"/><use xlink:href="#b" x="1.996"/><text y="1.67" class="c">st</text></svg><svg x="564"><use xlink:href="#a"/><use xlink:href="#b" x="2.996"/><text y="1.67" class="c">str</text></svg><svg x="705"><use xlink:href="#a"/><use xlink:href="#b" x="3.996"/><text y="1.67" class="c">stri</text></svg><svg x="846"><use xlink:href="#a"/><use xlink:href="#b" x="4.996"/><text y="1.67" class="c">strip</text></svg><svg x="987"><use xlink:href="#a"/><use xlink:href="#b" x="5.996"/><use xlink:href="#1"/></svg><svg x="1128"><use xlink:href="#a"/><use xlink:href="#b" x="5.996"/><use xlink:href="#1"/></svg><svg x="1269"><use xlink:href="#a"/><use xlink:href="#b" x="-.004" y="2.146"/><use xlink:href="#1"/></svg><svg x="1410"><use xlink:href="#a"/><use xlink:href="#b" x="-.004" y="2.146"/><use xlink:href="#1"/></svg><svg x="1551"><use xlink:href="#a"/><use xlink:href="#b" x="-.004" y="4.317"/><use xlink:href="#1"/></svg><svg x="1692"><use xlink:href="#a"/><use xlink:href="#b" x="-.004" y="6.488"/><use xlink:href="#1"/><use xlink:href="#2" y="4.342"/></svg><svg x="1833"><use xlink:href="#a"/><use xlink:href="#b" x="-.004" y="8.659"/><use xlink:href="#1"/><use xlink:href="#2" y="4.342"/></svg><svg x="1974"><use xlink:href="#a"/><use xlink:href="#b" x="12.996" y="54.25"/><use xlink:href="#1"/><use xlink:href="#2" y="4.342"/><use xlink:href="#3" y="8.684"/><use xlink:href="#4" y="10.855"/><use xlink:href="#5" y="15.197"/><use xlink:href="#6" y="17.368"/><use xlink:href="#7" y="19.539"/><use xlink:href="#8" y="23.881"/><use xlink:href="#9" y="26.052"/><use xlink:href="#10" y="28.223"/><use xlink:href="#11" y="32.565"/><use xlink:href="#12" y="34.736"/><use xlink:href="#13" y="36.907"/><use xlink:href="#14" y="39.078"/><use xlink:href="#15" y="41.249"/><use xlink:href="#16" y="43.42"/><use xlink:href="#17" y="47.762"/><use xlink:href="#18" y="49.933"/><use xlink:href="#19" y="52.104"/><text x="2.004" y="55.945" class="c">feedback</text></svg><svg x="2115"><use xlink:href="#a"/><use xlink:href="#b" x="-.004" y="93.328"/><use xlink:href="#1"/><use xlink:href="#2" y="4.342"/><use xlink:href="#3" y="8.684"/><use xlink:href="#4" y="10.855"/><use xlink:href="#5" y="15.197"/><use xlink:href="#6" y="17.368"/><use xlink:href="#7" y="19.539"/><use xlink:href="#8" y="23.881"/><use xlink:href="#9" y="26.052"/><use xlink:href="#10" y="28.223"/><use xlink:href="#11" y="32.565"/><use xlink:href="#12" y="34.736"/><use xlink:href="#13" y="36.907"/><use xlink:href="#14" y="39.078"/><use xlink:href="#15" y="41.249"/><use xlink:href="#16" y="43.42"/><use xlink:href="#17" y="47.762"/><use xlink:href="#18" y="49.933"/><use xlink:href="#19" y="52.104"/><use xlink:href="#20" y="54.275"/><use xlink:href="#21" y="56.446"/><use xlink:href="#22" y="58.617"/><use xlink:href="#23" y="60.788"/><use xlink:href="#24" y="62.959"/><use xlink:href="#25" y="65.13"/><use xlink:href="#26" y="69.472"/><use xlink:href="#27" y="71.643"/><use xlink:href="#28" y="73.814"/><use xlink:href="#29" y="75.985"/><use xlink:href="#30" y="78.156"/><use xlink:href="#31" y="80.327"/><use xlink:href="#32" y="82.498"/><use xlink:href="#33" y="84.669"/><use xlink:href="#34" y="86.84"/><use xlink:href="#35" y="91.182"/></svg><svg x="2256"><use xlink:href="#a"/><use xlink:href="#b" x="-.004" y="93.328"/><use xlink:href="#1"/><use xlink:href="#2" y="4.342"/><use xlink:href="#3" y="8.684"/><use xlink:href="#4" y="10.855"/><use xlink:href="#5" y="15.197"/><use xlink:href="#6" y="17.368"/><use xlink:href="#7" y="19.539"/><use xlink:href="#8" y="23.881"/><use xlink:href="#9" y="26.052"/><use xlink:href="#10" y="28.223"/><use xlink:href="#11" y="32.565"/><use xlink:href="#12" y="34.736"/><use xlink:href="#13" y="36.907"/><use xlink:href="#14" y="39.078"/><use xlink:href="#15" y="41.249"/><use xlink:href="#16" y="43.42"/><use xlink:href="#17" y="47.762"/><use xlink:href="#18" y="49.933"/><use xlink:href="#19" y="52.104"/><use xlink:href="#20" y="54.275"/><use xlink:href="#21" y="56.446"/><use xlink:href="#22" y="58.617"/><use xlink:href="#23" y="60.788"/><use xlink:href="#24" y="62.959"/><use xlink:href="#25" y="65.13"/><use xlink:href="#26" y="69.472"/><use xlink:href="#27" y="71.643"/><use xlink:href="#28" y="73.814"/><use xlink:href="#29" y="75.985"/><use xlink:href="#30" y="78.156"/><use xlink:href="#31" y="80.327"/><use xlink:href="#32" y="82.498"/><use xlink:href="#33" y="84.669"/><use xlink:href="#34" y="86.84"/><use xlink:href="#35" y="91.182"/></svg><svg x="2397"><use xlink:href="#a"/><use xlink:href="#b" x="-.004" y="93.328"/><use xlink:href="#1"/><use xlink:href="#2" y="4.342"/><use xlink:href="#3" y="8.684"/><use xlink:href="#4" y="10.855"/><use xlink:href="#5" y="15.197"/><use xlink:href="#6" y="17.368"/><use xlink:href="#7" y="19.539"/><use xlink:href="#8" y="23.881"/><use xlink:href="#9" y="26.052"/><use xlink:href="#10" y="28.223"/><use xlink:href="#11" y="32.565"/><use xlink:href="#12" y="34.736"/><use xlink:href="#13" y="36.907"/><use xlink:href="#14" y="39.078"/><use xlink:href="#15" y="41.249"/><use xlink:href="#16" y="43.42"/><use xlink:href="#17" y="47.762"/><use xlink:href="#18" y="49.933"/><use xlink:href="#19" y="52.104"/><use xlink:href="#20" y="54.275"/><use xlink:href="#21" y="56.446"/><use xlink:href="#22" y="58.617"/><use xlink:href="#23" y="60.788"/><use xlink:href="#24" y="62.959"/><use xlink:href="#25" y="65.13"/><use xlink:href="#26" y="69.472"/><use xlink:href="#27" y="71.643"/><use xlink:href="#28" y="73.814"/><use xlink:href="#29" y="75.985"/><use xlink:href="#30" y="78.156"/><use xlink:href="#31" y="80.327"/><use xlink:href="#32" y="82.498"/><use xlink:href="#33" y="84.669"/><use xlink:href="#34" y="86.84"/><use xlink:href="#35" y="91.182"/></svg><svg x="2538"><use xlink:href="#a"/><use xlink:href="#b" x="-.004" y="93.328"/><use xlink:href="#1"/><use xlink:href="#2" y="4.342"/><use xlink:href="#3" y="8.684"/><use xlink:href="#4" y="10.855"/><use xlink:href="#5" y="15.197"/><use xlink:href="#6" y="17.368"/><use xlink:href="#7" y="19.539"/><use xlink:href="#8" y="23.881"/><use xlink:href="#9" y="26.052"/><use xlink:href="#10" y="28.223"/><use xlink:href="#11" y="32.565"/><use xlink:href="#12" y="34.736"/><use xlink:href="#13" y="36.907"/><use xlink:href="#14" y="39.078"/><use xlink:href="#15" y="41.249"/><use xlink:href="#16" y="43.42"/><use xlink:href="#17" y="47.762"/><use xlink:href="#18" y="49.933"/><use xlink:href="#19" y="52.104"/><use xlink:href="#20" y="54.275"/><use xlink:href="#21" y="56.446"/><use xlink:href="#22" y="58.617"/><use xlink:href="#23" y="60.788"/><use xlink:href="#24" y="62.959"/><use xlink:href="#25" y="65.13"/><use xlink:href="#26" y="69.472"/><use xlink:href="#27" y="71.643"/><use xlink:href="#28" y="73.814"/><use xlink:href="#29" y="75.985"/><use xlink:href="#30" y="78.156"/><use xlink:href="#31" y="80.327"/><use xlink:href="#32" y="82.498"/><use xlink:href="#33" y="84.669"/><use xlink:href="#34" y="86.84"/><use xlink:href="#35" y="91.182"/></svg><svg x="2679"><use xlink:href="#a"/><use xlink:href="#b" x="4.996" y="93.328"/><use xlink:href="#1"/><use xlink:href="#2" y="4.342"/><use xlink:href="#3" y="8.684"/><use xlink:href="#4" y="10.855"/><use xlink:href="#5" y="15.197"/><use xlink:href="#6" y="17.368"/><use xlink:href="#7" y="19.539"/><use xlink:href="#8" y="23.881"/><use xlink:href="#9" y="26.052"/><use xlink:href="#10" y="28.223"/><use xlink:href="#11" y="32.565"/><use xlink:href="#12" y="34.736"/><use xlink:href="#13" y="36.907"/><use xlink:href="#14" y="39.078"/><use xlink:href="#15" y="41.249"/><use xlink:href="#16" y="43.42"/><use xlink:href="#17" y="47.762"/><use xlink:href="#18" y="49.933"/><use xlink:href="#19" y="52.104"/><use xlink:href="#20" y="54.275"/><use xlink:href="#21" y="56.446"/><use xlink:href="#22" y="58.617"/><use xlink:href="#23" y="60.788"/><use xlink:href="#24" y="62.959"/><use xlink:href="#25" y="65.13"/><use xlink:href="#26" y="69.472"/><use xlink:href="#27" y="71.643"/><use xlink:href="#28" y="73.814"/><use xlink:href="#29" y="75.985"/><use xlink:href="#30" y="78.156"/><use xlink:href="#31" y="80.327"/><use xlink:href="#32" y="82.498"/><use xlink:href="#33" y="84.669"/><use xlink:href="#34" y="86.84"/><use xlink:href="#35" y="91.182"/><use xlink:href="#36" y="93.353"/></svg><svg x="2820"><use xlink:href="#a"/><use xlink:href="#b" x="4.996" y="93.328"/><use xlink:href="#1"/><use xlink:href="#2" y="4.342"/><use xlink:href="#3" y="8.684"/><use xlink:href="#4" y="10.855"/><use xlink:href="#5" y="15.197"/><use xlink:href="#6" y="17.368"/><use xlink:href="#7" y="19.539"/><use xlink:href="#8" y="23.881"/><use xlink:href="#9" y="26.052"/><use xlink:href="#10" y="28.223"/><use xlink:href="#11" y="32.565"/><use xlink:href="#12" y="34.736"/><use xlink:href="#13" y="36.907"/><use xlink:href="#14" y="39.078"/><use xlink:href="#15" y="41.249"/><use xlink:href="#16" y="43.42"/><use xlink:href="#17" y="47.762"/><use xlink:href="#18" y="49.933"/><use xlink:href="#19" y="52.104"/><use xlink:href="#20" y="54.275"/><use xlink:href="#21" y="56.446"/><use xlink:href="#22" y="58.617"/><use xlink:href="#23" y="60.788"/><use xlink:href="#24" y="62.959"/><use xlink:href="#25" y="65.13"/><use xlink:href="#26" y="69.472"/><use xlink:href="#27" y="71.643"/><use xlink:href="#28" y="73.814"/><use xlink:href="#29" y="75.985"/><use xlink:href="#30" y="78.156"/><use xlink:href="#31" y="80.327"/><use xlink:href="#32" y="82.498"/><use xlink:href="#33" y="84.669"/><use xlink:href="#34" y="86.84"/><use xlink:href="#35" y="91.182"/><use xlink:href="#36" y="93.353"/></svg><svg x="2961"><use xlink:href="#a"/><use xlink:href="#b" x="4.996" y="93.328"/><use xlink:href="#1"/><use xlink:href="#2" y="4.342"/><use xlink:href="#3" y="8.684"/><use xlink:href="#4" y="10.855"/><use xlink:href="#5" y="15.197"/><use xlink:href="#6" y="17.368"/><use xlink:href="#7" y="19.539"/><use xlink:href="#8" y="23.881"/><use xlink:href="#9" y="26.052"/><use xlink:href="#10" y="28.223"/><use xlink:href="#11" y="32.565"/><use xlink:href="#12" y="34.736"/><use xlink:href="#13" y="36.907"/><use xlink:href="#14" y="39.078"/><use xlink:href="#15" y="41.249"/><use xlink:href="#16" y="43.42"/><use xlink:href="#17" y="47.762"/><use xlink:href="#18" y="49.933"/><use xlink:href="#19" y="52.104"/><use xlink:href="#20" y="54.275"/><use xlink:href="#21" y="56.446"/><use xlink:href="#22" y="58.617"/><use xlink:href="#23" y="60.788"/><use xlink:href="#24" y="62.959"/><use xlink:href="#25" y="65.13"/><use xlink:href="#26" y="69.472"/><use xlink:href="#27" y="71.643"/><use xlink:href="#28" y="73.814"/><use xlink:href="#29" y="75.985"/><use xlink:href="#30" y="78.156"/><use xlink:href="#31" y="80.327"/><use xlink:href="#32" y="82.498"/><use xlink:href="#33" y="84.669"/><use xlink:href="#34" y="86.84"/><use xlink:href="#35" y="91.182"/><use xlink:href="#36" y="93.353"/></svg><svg x="3102"><use xlink:href="#a"/><use xlink:href="#b" x="-.004" y="95.499"/><use xlink:href="#1"/><use xlink:href="#2" y="4.342"/><use xlink:href="#3" y="8.684"/><use xlink:href="#4" y="10.855"/><use xlink:href="#5" y="15.197"/><use xlink:href="#6" y="17.368"/><use xlink:href="#7" y="19.539"/><use xlink:href="#8" y="23.881"/><use xlink:href="#9" y="26.052"/><use xlink:href="#10" y="28.223"/><use xlink:href="#11" y="32.565"/><use xlink:href="#12" y="34.736"/><use xlink:href="#13" y="36.907"/><use xlink:href="#14" y="39.078"/><use xlink:href="#15" y="41.249"/><use xlink:href="#16" y="43.42"/><use xlink:href="#17" y="47.762"/><use xlink:href="#18" y="49.933"/><use xlink:href="#19" y="52.104"/><use xlink:href="#20" y="54.275"/><use xlink:href="#21" y="56.446"/><use xlink:href="#22" y="58.617"/><use xlink:href="#23" y="60.788"/><use xlink:href="#24" y="62.959"/><use xlink:href="#25" y="65.13"/><use xlink:href="#26" y="69.472"/><use xlink:href="#27" y="71.643"/><use xlink:href="#28" y="73.814"/><use xlink:href="#29" y="75.985"/><use xlink:href="#30" y="78.156"/><use xlink:href="#31" y="80.327"/><use xlink:href="#32" y="82.498"/><use xlink:href="#33" y="84.669"/><use xlink:href="#34" y="86.84"/><use xlink:href="#35" y="91.182"/><use xlink:href="#36" y="93.353"/></svg><svg x="3243"><use xlink:href="#a"/><use xlink:href="#b" x="-.004" y="95.499"/><use xlink:href="#1"/><use xlink:href="#2" y="4.342"/><use xlink:href="#3" y="8.684"/><use xlink:href="#4" y="10.855"/><use xlink:href="#5" y="15.197"/><use xlink:href="#6" y="17.368"/><use xlink:href="#7" y="19.539"/><use xlink:href="#8" y="23.881"/><use xlink:href="#9" y="26.052"/><use xlink:href="#10" y="28.223"/><use xlink:href="#11" y="32.565"/><use xlink:href="#12" y="34.736"/><use xlink:href="#13" y="36.907"/><use xlink:href="#14" y="39.078"/><use xlink:href="#15" y="41.249"/><use xlink:href="#16" y="43.42"/><use xlink:href="#17" y="47.762"/><use xlink:href="#18" y="49.933"/><use xlink:href="#19" y="52.104"/><use xlink:href="#20" y="54.275"/><use xlink:href="#21" y="56.446"/><use xlink:href="#22" y="58.617"/><use xlink:href="#23" y="60.788"/><use xlink:href="#24" y="62.959"/><use xlink:href="#25" y="65.13"/><use xlink:href="#26" y="69.472"/><use xlink:href="#27" y="71.643"/><use xlink:href="#28" y="73.814"/><use xlink:href="#29" y="75.985"/><use xlink:href="#30" y="78.156"/><use xlink:href="#31" y="80.327"/><use xlink:href="#32" y="82.498"/><use xlink:href="#33" y="84.669"/><use xlink:href="#34" y="86.84"/><use xlink:href="#35" y="91.182"/><use xlink:href="#36" y="93.353"/></svg></svg></g></g></svg></svg>