<svg xmlns="http://www.w3.org/2000/svg" xmlns:xlink="http://www.w3.org/1999/xlink" width="1470" height="1404.31"><rect width="1470" height="1404.31" rx="5" ry="5" class="a"/><svg y="0%" x="0%"><circle cx="20" cy="20" r="6" fill="#ff5f58"/><circle cx="40" cy="20" r="6" fill="#ffbd2e"/><circle cx="60" cy="20" r="6" fill="#18c132"/></svg><svg height="1324.31" viewBox="0 0 141 132.431" width="1410" x="25" xmlns="http://www.w3.org/2000/svg" xmlns:xlink="http://www.w3.org/1999/xlink" y="60"><style>@keyframes l{0%{transform:translateX(0)}12.7%{transform:translateX(-141px)}36.1%{transform:translateX(-282px)}39.4%{transform:translateX(-423px)}41.9%{transform:translateX(-564px)}43.8%{transform:translateX(-705px)}48.3%{transform:translateX(-846px)}50.8%{transform:translateX(-987px)}54.2%{transform:translateX(-1833px)}54.6%{transform:translateX(-2538px)}54.9%{transform:translateX(-2820px)}95.1%{transform:translateX(-2961px)}98.3%{transform:translateX(-3102px)}to{transform:translateX(-3243px)}}.a{fill:#000}.f,.g{fill:#fff;white-space:pre}.g{fill:#686868;font-weight:700}</style><g font-family="Monaco,Consolas,Menlo,'Bitstream Vera Sans Mono','Powerline Symbols',monospace" font-size="1.67"><defs><symbol id="20"><text x="2.004" y="1.67" class="f">feedback</text><text x="32.064" y="1.67" class="f">Provide</text><text x="40.08" y="1.67" class="f">us</text><text x="43.086" y="1.67" class="f">with</text><text x="48.096" y="1.67" class="f">feedback</text><text x="57.114" y="1.67" class="f">on</text><text x="60.12" y="1.67" class="f">the</text><text x="64.128" y="1.67" class="f">CLI</text></symbol><symbol id="1"><text y="1.67" class="f">stripe</text></symbol><symbol id="3"><text y="1.67" class="g">Usage:</text></symbol><symbol id="4"><text x="2.004" y="1.67" class="f">stripe</text><text x="9.018" y="1.67" class="f">[command]</text></symbol><symbol id="5"><text y="1.67" class="g">Webhook</text><text x="8.016" y="1.67" class="g">commands:</text></symbol><symbol id="6"><text x="2.004" y="1.67" class="f">listen</text><text x="32.064" y="1.67" class="f">Listen</text><text x="39.078" y="1.67" class="f">for</text><text x="43.086" y="1.67" class="f">webhook</text><text x="51.102" y="1.67" class="f">events</text></symbol><symbol id="7"><text x="2.004" y="1.67" class="f">trigger</text><text x="32.064" y="1.67" class="f">Trigger</text><text x="40.08" y="1.67" class="f">test</text><text x="45.09" y="1.67" class="f">webhook</text><text x="53.106" y="1.67" class="f">events</text><text x="60.12" y="1.67" class="f">to</text><text x="63.126" y="1.67" class="f">fire</text></symbol><symbol id="8"><text y="1.67" class="g">Stripe</text><text x="7.014" y="1.67" class="g">commands:</text></symbol><symbol id="9"><text x="2.004" y="1.67" class="f">logs</text><text x="32.064" y="1.67" class="f">Interact</text><text x="41.082" y="1.67" class="f">with</text><text x="46.092" y="1.67" class="f">Stripe</text><text x="53.106" y="1.67" class="f">request</text><text x="61.122" y="1.67" class="f">logs</text></symbol><symbol id="10"><text x="2.004" y="1.67" class="f">status</text><text x="32.064" y="1.67" class="f">Check</text><text x="38.076" y="1.67" class="f">the</text><text x="42.084" y="1.67" class="f">status</text><text x="49.098" y="1.67" class="f">of</text><text x="52.104" y="1.67" class="f">the</text><text x="56.112" y="1.67" class="f">Stripe</text><text x="63.126" y="1.67" class="f">API</text></symbol><symbol id="11"><text y="1.67" class="g">Resource</text><text x="9.018" y="1.67" class="g">commands:</text></symbol><symbol id="12"><text x="2.004" y="1.67" class="f">get</text><text x="32.064" y="1.67" class="f">Quickly</text><text x="40.08" y="1.67" class="f">retrieve</text><text x="49.098" y="1.67" class="f">resources</text><text x="59.118" y="1.67" class="f">from</text><text x="64.128" y="1.67" class="f">Stripe</text></symbol><symbol id="13"><text x="2.004" y="1.67" class="f">charges</text><text x="32.064" y="1.67" class="f">Make</text><text x="37.074" y="1.67" class="f">requests</text><text x="46.092" y="1.67" class="f">(capture,</text><text x="56.112" y="1.67" class="f">create,</text><text x="64.128" y="1.67" class="f">list,</text><text x="70.14" y="1.67" class="f">etc)</text><text x="75.15" y="1.67" class="f">on</text><text x="78.156" y="1.67" class="f">charges</text></symbol><symbol id="14"><text x="2.004" y="1.67" class="f">customers</text><text x="32.064" y="1.67" class="f">Make</text><text x="37.074" y="1.67" class="f">requests</text><text x="46.092" y="1.67" class="f">(create,</text><text x="55.11" y="1.67" class="f">delete,</text><text x="63.126" y="1.67" class="f">list,</text><text x="69.138" y="1.67" class="f">etc)</text><text x="74.148" y="1.67" class="f">on</text><text x="77.154" y="1.67" class="f">customers</text></symbol><symbol id="15"><text x="2.004" y="1.67" class="f">payment_intents</text><text x="32.064" y="1.67" class="f">Make</text><text x="37.074" y="1.67" class="f">requests</text><text x="46.092" y="1.67" class="f">(cancel,</text><text x="55.11" y="1.67" class="f">capture,</text><text x="64.128" y="1.67" class="f">confirm,</text><text x="73.146" y="1.67" class="f">etc)</text><text x="78.156" y="1.67" class="f">on</text><text x="81.162" y="1.67" class="f">payment</text><text x="89.178" y="1.67" class="f">intents</text></symbol><symbol id="16"><text x="2.004" y="1.67" class="f">...</text><text x="32.064" y="1.67" class="f">To</text><text x="35.07" y="1.67" class="f">see</text><text x="39.078" y="1.67" class="f">more</text><text x="44.088" y="1.67" class="f">resource</text><text x="53.106" y="1.67" class="f">commands,</text><text x="63.126" y="1.67" class="f">run</text><text x="67.134" y="1.67" class="f">`stripe</text><text x="75.15" y="1.67" class="f">resources</text><text x="85.17" y="1.67" class="f">help`</text></symbol><symbol id="17"><text y="1.67" class="g">Other</text><text x="6.012" y="1.67" class="g">commands:</text></symbol><symbol id="18"><text x="2.004" y="1.67" class="f">completion</text><text x="32.064" y="1.67" class="f">Generate</text><text x="41.082" y="1.67" class="f">bash</text><text x="46.092" y="1.67" class="f">and</text><text x="50.1" y="1.67" class="f">zsh</text><text x="54.108" y="1.67" class="f">completion</text><text x="65.13" y="1.67" class="f">scripts</text></symbol><symbol id="19"><text x="2.004" y="1.67" class="f">config</text><text x="32.064" y="1.67" class="f">Manually</text><text x="41.082" y="1.67" class="f">change</text><text x="48.096" y="1.67" class="f">the</text><text x="52.104" y="1.67" class="f">config</text><text x="59.118" y="1.67" class="f">values</text><text x="66.132" y="1.67" class="f">for</text><text x="70.14" y="1.67" class="f">the</text><text x="74.148" y="1.67" class="f">CLI</text></symbol><symbol id="2"><text y="1.67" class="f">The</text><text x="4.008" y="1.67" class="f">official</text><text x="13.026" y="1.67" class="f">command-line</text><text x="26.052" y="1.67" class="f">tool</text><text x="31.062" y="1.67" class="f">to</text><text x="34.068" y="1.67" class="f">interact</text><text x="43.086" y="1.67" class="f">with</text><text x="48.096" y="1.67" class="f">Stripe.</text></symbol><symbol id="21"><text x="2.004" y="1.67" class="f">help</text><text x="32.064" y="1.67" class="f">Help</text><text x="37.074" y="1.67" class="f">about</text><text x="43.086" y="1.67" class="f">any</text><text x="47.094" y="1.67" class="f">command</text></symbol><symbol id="22"><text x="2.004" y="1.67" class="f">login</text><text x="32.064" y="1.67" class="f">Login</text><text x="38.076" y="1.67" class="f">to</text><text x="41.082" y="1.67" class="f">your</text><text x="46.092" y="1.67" class="f">Stripe</text><text x="53.106" y="1.67" class="f">account</text></symbol><symbol id="23"><text x="2.004" y="1.67" class="f">open</text><text x="32.064" y="1.67" class="f">Quickly</text><text x="40.08" y="1.67" class="f">open</text><text x="45.09" y="1.67" class="f">Stripe</text><text x="52.104" y="1.67" class="f">pages</text></symbol><symbol id="24"><text x="2.004" y="1.67" class="f">samples</text><text x="32.064" y="1.67" class="f">Sample</text><text x="39.078" y="1.67" class="f">integrations</text><text x="52.104" y="1.67" class="f">built</text><text x="58.116" y="1.67" class="f">by</text><text x="61.122" y="1.67" class="f">Stripe</text></symbol><symbol id="25"><text x="2.004" y="1.67" class="f">version</text><text x="32.064" y="1.67" class="f">Get</text><text x="36.072" y="1.67" class="f">the</text><text x="40.08" y="1.67" class="f">version</text><text x="48.096" y="1.67" class="f">of</text><text x="51.102" y="1.67" class="f">the</text><text x="55.11" y="1.67" class="f">Stripe</text><text x="62.124" y="1.67" class="f">CLI</text></symbol><symbol id="26"><text y="1.67" class="g">Flags:</text></symbol><symbol id="27"><text x="6.012" y="1.67" class="f">--api-key</text><text x="16.032" y="1.67" class="f">string</text><text x="30.06" y="1.67" class="f">Your</text><text x="35.07" y="1.67" class="f">API</text><text x="39.078" y="1.67" class="f">key</text><text x="43.086" y="1.67" class="f">to</text><text x="46.092" y="1.67" class="f">use</text><text x="50.1" y="1.67" class="f">for</text><text x="54.108" y="1.67" class="f">the</text><text x="58.116" y="1.67" class="f">command</text></symbol><symbol id="28"><text x="6.012" y="1.67" class="f">--color</text><text x="14.028" y="1.67" class="f">string</text><text x="30.06" y="1.67" class="f">turn</text><text x="35.07" y="1.67" class="f">on/off</text><text x="42.084" y="1.67" class="f">color</text><text x="48.096" y="1.67" class="f">output</text><text x="55.11" y="1.67" class="f">(on,</text><text x="60.12" y="1.67" class="f">off,</text><text x="65.13" y="1.67" class="f">auto)</text></symbol><symbol id="29"><text x="6.012" y="1.67" class="f">--config</text><text x="15.03" y="1.67" class="f">string</text><text x="30.06" y="1.67" class="f">config</text><text x="37.074" y="1.67" class="f">file</text><text x="42.084" y="1.67" class="f">(default</text><text x="51.102" y="1.67" class="f">is</text><text x="54.108" y="1.67" class="f">$HOME/.config/stripe/config.toml)</text></symbol><symbol id="30"><text x="6.012" y="1.67" class="f">--device-name</text><text x="20.04" y="1.67" class="f">string</text><text x="30.06" y="1.67" class="f">device</text><text x="37.074" y="1.67" class="f">name</text></symbol><symbol id="31"><text x="2.004" y="1.67" class="f">-h,</text><text x="6.012" y="1.67" class="f">--help</text><text x="30.06" y="1.67" class="f">help</text><text x="35.07" y="1.67" class="f">for</text><text x="39.078" y="1.67" class="f">stripe</text></symbol><symbol id="32"><text x="6.012" y="1.67" class="f">--log-level</text><text x="18.036" y="1.67" class="f">string</text><text x="30.06" y="1.67" class="f">log</text><text x="34.068" y="1.67" class="f">level</text><text x="40.08" y="1.67" class="f">(debug,</text><text x="48.096" y="1.67" class="f">info,</text><text x="54.108" y="1.67" class="f">warn,</text><text x="60.12" y="1.67" class="f">error)</text><text x="67.134" y="1.67" class="f">(default</text><text x="76.152" y="1.67" class="f">&quot;info&quot;)</text></symbol><symbol id="33"><text x="2.004" y="1.67" class="f">-p,</text><text x="6.012" y="1.67" class="f">--project-name</text><text x="21.042" y="1.67" class="f">string</text><text x="30.06" y="1.67" class="f">the</text><text x="34.068" y="1.67" class="f">project</text><text x="42.084" y="1.67" class="f">name</text><text x="47.094" y="1.67" class="f">to</text><text x="50.1" y="1.67" class="f">read</text><text x="55.11" y="1.67" class="f">from</text><text x="60.12" y="1.67" class="f">for</text><text x="64.128" y="1.67" class="f">config</text><text x="71.142" y="1.67" class="f">(default</text><text x="80.16" y="1.67" class="f">&quot;default&quot;)</text></symbol><symbol id="34"><text x="2.004" y="1.67" class="f">-v,</text><text x="6.012" y="1.67" class="f">--version</text><text x="30.06" y="1.67" class="f">Get</text><text x="34.068" y="1.67" class="f">the</text><text x="38.076" y="1.67" class="f">version</text><text x="46.092" y="1.67" class="f">of</text><text x="49.098" y="1.67" class="f">the</text><text x="53.106" y="1.67" class="f">Stripe</text><text x="60.12" y="1.67" class="f">CLI</text></symbol><symbol id="35"><text y="1.67" class="f">Use</text><text x="4.008" y="1.67" class="f">&quot;stripe</text><text x="12.024" y="1.67" class="f">[command]</text><text x="22.044" y="1.67" class="f">--help&quot;</text><text x="30.06" y="1.67" class="f">for</text><text x="34.068" y="1.67" class="f">more</text><text x="39.078" y="1.67" class="f">information</text><text x="51.102" y="1.67" class="f">about</text><text x="57.114" y="1.67" class="f">a</text><text x="59.118" y="1.67" class="f">command.</text></symbol><symbol id="36"><text y="1.67" style="white-space:pre" fill="#1dc121" font-weight="700">➜</text><text x="3.006" y="1.67" style="white-space:pre" fill="#20c5c6" font-weight="700">~</text></symbol><symbol id="a"><path fill="transparent" d="M0 0h141v61H0z"/></symbol><symbol id="b"><path fill="#f81ce5" d="M0 0h1.102v2.171H0z"/></symbol></defs><path class="a" d="M0 0h141v132.431H0z"/><g style="animation-duration:6.702389s;animation-iteration-count:infinite;animation-name:l;animation-timing-function:steps(1,end)"><svg width="3384"><svg><use xlink:href="#a"/><use xlink:href="#b" x="-.004"/></svg><svg x="141"><use xlink:href="#a"/><use xlink:href="#b" x="-.004"/></svg><svg x="282"><use xlink:href="#a"/><use xlink:href="#b" x=".996"/><text y="1.67" class="f">s</text></svg><svg x="423"><use xlink:href="#a"/><use xlink:href="#b" x="1.996"/><text y="1.67" class="f">st</text></svg><svg x="564"><use xlink:href="#a"/><use xlink:href="#b" x="2.996"/><text y="1.67" class="f">str</text></svg><svg x="705"><use xlink:href="#a"/><use xlink:href="#b" x="3.996"/><text y="1.67" class="f">stri</text></svg><svg x="846"><use xlink:href="#a"/><use xlink:href="#b" x="4.996"/><text y="1.67" class="f">strip</text></svg><svg x="987"><use xlink:href="#a"/><use xlink:href="#b" x="5.996"/><use xlink:href="#1"/></svg><svg x="1128"><use xlink:href="#a"/><use xlink:href="#b" x="5.996"/><use xlink:href="#1"/></svg><svg x="1269"><use xlink:href="#a"/><use xlink:href="#b" x="-.004" y="2.146"/><use xlink:href="#1"/></svg><svg x="1410"><use xlink:href="#a"/><use xlink:href="#b" x="-.004" y="2.146"/><use xlink:href="#1"/></svg><svg x="1551"><use xlink:href="#a"/><use xlink:href="#b" x="-.004" y="4.317"/><use xlink:href="#1"/></svg><svg x="1692"><use xlink:href="#a"/><use xlink:href="#b" x="-.004" y="6.488"/><use xlink:href="#1"/><use xlink:href="#2" y="4.342"/></svg><svg x="1833"><use xlink:href="#a"/><use xlink:href="#b" x="-.004" y="8.659"/><use xlink:href="#1"/><use xlink:href="#2" y="4.342"/></svg><svg x="1974"><use xlink:href="#a"/><use xlink:href="#b" x="12.996" y="54.25"/><use xlink:href="#1"/><use xlink:href="#2" y="4.342"/><use xlink:href="#3" y="8.684"/><use xlink:href="#4" y="10.855"/><use xlink:href="#5" y="15.197"/><use xlink:href="#6" y="17.368"/><use xlink:href="#7" y="19.539"/><use xlink:href="#8" y="23.881"/><use xlink:href="#9" y="26.052"/><use xlink:href="#10" y="28.223"/><use xlink:href="#11" y="32.565"/><use xlink:href="#12" y="34.736"/><use xlink:href="#13" y="36.907"/><use xlink:href="#14" y="39.078"/><use xlink:href="#15" y="41.249"/><use xlink:href="#16" y="43.42"/><use xlink:href="#17" y="47.762"/><use xlink:href="#18" y="49.933"/><use xlink:href="#19" y="52.104"/><text x="2.004" y="55.945" class="f">feedback</text></svg><svg x="2115"><use xlink:href="#a"/><use xlink:href="#b" x="-.004" y="93.328"/><use xlink:href="#1"/><use xlink:href="#2" y="4.342"/><use xlink:href="#3" y="8.684"/><use xlink:href="#4" y="10.855"/><use xlink:href="#5" y="15.197"/><use xlink:href="#6" y="17.368"/><use xlink:href="#7" y="19.539"/><use xlink:href="#8" y="23.881"/><use xlink:href="#9" y="26.052"/><use xlink:href="#10" y="28.223"/><use xlink:href="#11" y="32.565"/><use xlink:href="#12" y="34.736"/><use xlink:href="#13" y="36.907"/><use xlink:href="#14" y="39.078"/><use xlink:href="#15" y="41.249"/><use xlink:href="#16" y="43.42"/><use xlink:href="#17" y="47.762"/><use xlink:href="#18" y="49.933"/><use xlink:href="#19" y="52.104"/><use xlink:href="#20" y="54.275"/><use xlink:href="#21" y="56.446"/><use xlink:href="#22" y="58.617"/><use xlink:href="#23" y="60.788"/><use xlink:href="#24" y="62.959"/><use xlink:href="#25" y="65.13"/><use xlink:href="#26" y="69.472"/><use xlink:href="#27" y="71.643"/><use xlink:href="#28" y="73.814"/><use xlink:href="#29" y="75.985"/><use xlink:href="#30" y="78.156"/><use xlink:href="#31" y="80.327"/><use xlink:href="#32" y="82.498"/><use xlink:href="#33" y="84.669"/><use xlink:href="#34" y="86.84"/><use xlink:href="#35" y="91.182"/></svg><svg x="2256"><use xlink:href="#a"/><use xlink:href="#b" x="-.004" y="93.328"/><use xlink:href="#1"/><use xlink:href="#2" y="4.342"/><use xlink:href="#3" y="8.684"/><use xlink:href="#4" y="10.855"/><use xlink:href="#5" y="15.197"/><use xlink:href="#6" y="17.368"/><use xlink:href="#7" y="19.539"/><use xlink:href="#8" y="23.881"/><use xlink:href="#9" y="26.052"/><use xlink:href="#10" y="28.223"/><use xlink:href="#11" y="32.565"/><use xlink:href="#12" y="34.736"/><use xlink:href="#13" y="36.907"/><use xlink:href="#14" y="39.078"/><use xlink:href="#15" y="41.249"/><use xlink:href="#16" y="43.42"/><use xlink:href="#17" y="47.762"/><use xlink:href="#18" y="49.933"/><use xlink:href="#19" y="52.104"/><use xlink:href="#20" y="54.275"/><use xlink:href="#21" y="56.446"/><use xlink:href="#22" y="58.617"/><use xlink:href="#23" y="60.788"/><use xlink:href="#24" y="62.959"/><use xlink:href="#25" y="65.13"/><use xlink:href="#26" y="69.472"/><use xlink:href="#27" y="71.643"/><use xlink:href="#28" y="73.814"/><use xlink:href="#29" y="75.985"/><use xlink:href="#30" y="78.156"/><use xlink:href="#31" y="80.327"/><use xlink:href="#32" y="82.498"/><use xlink:href="#33" y="84.669"/><use xlink:href="#34" y="86.84"/><use xlink:href="#35" y="91.182"/></svg><svg x="2397"><use xlink:href="#a"/><use xlink:href="#b" x="-.004" y="93.328"/><use xlink:href="#1"/><use xlink:href="#2" y="4.342"/><use xlink:href="#3" y="8.684"/><use xlink:href="#4" y="10.855"/><use xlink:href="#5" y="15.197"/><use xlink:href="#6" y="17.368"/><use xlink:href="#7" y="19.539"/><use xlink:href="#8" y="23.881"/><use xlink:href="#9" y="26.052"/><use xlink:href="#10" y="28.223"/><use xlink:href="#11" y="32.565"/><use xlink:href="#12" y="34.736"/><use xlink:href="#13" y="36.907"/><use xlink:href="#14" y="39.078"/><use xlink:href="#15" y="41.249"/><use xlink:href="#16" y="43.42"/><use xlink:href="#17" y="47.762"/><use xlink:href="#18" y="49.933"/><use xlink:href="#19" y="52.104"/><use xlink:href="#20" y="54.275"/><use xlink:href="#21" y="56.446"/><use xlink:href="#22" y="58.617"/><use xlink:href="#23" y="60.788"/><use xlink:href="#24" y="62.959"/><use xlink:href="#25" y="65.13"/><use xlink:href="#26" y="69.472"/><use xlink:href="#27" y="71.643"/><use xlink:href="#28" y="73.814"/><use xlink:href="#29" y="75.985"/><use xlink:href="#30" y="78.156"/><use xlink:href="#31" y="80.327"/><use xlink:href="#32" y="82.498"/><use xlink:href="#33" y="84.669"/><use xlink:href="#34" y="86.84"/><use xlink:href="#35" y="91.182"/></svg><svg x="2538"><use xlink:href="#a"/><use xlink:href="#b" x="-.004" y="93.328"/><use xlink:href="#1"/><use xlink:href="#2" y="4.342"/><use xlink:href="#3" y="8.684"/><use xlink:href="#4" y="10.855"/><use xlink:href="#5" y="15.197"/><use xlink:href="#6" y="17.368"/><use xlink:href="#7" y="19.539"/><use xlink:href="#8" y="23.881"/><use xlink:href="#9" y="26.052"/><use xlink:href="#10" y="28.223"/><use xlink:href="#11" y="32.565"/><use xlink:href="#12" y="34.736"/><use xlink:href="#13" y="36.907"/><use xlink:href="#14" y="39.078"/><use xlink:href="#15" y="41.249"/><use xlink:href="#16" y="43.42"/><use xlink:href="#17" y="47.762"/><use xlink:href="#18" y="49.933"/><use xlink:href="#19" y="52.104"/><use xlink:href="#20" y="54.275"/><use xlink:href="#21" y="56.446"/><use xlink:href="#22" y="58.617"/><use xlink:href="#23" y="60.788"/><use xlink:href="#24" y="62.959"/><use xlink:href="#25" y="65.13"/><use xlink:href="#26" y="69.472"/><use xlink:href="#27" y="71.643"/><use xlink:href="#28" y="73.814"/><use xlink:href="#29" y="75.985"/><use xlink:href="#30" y="78.156"/><use xlink:href="#31" y="80.327"/><use xlink:href="#32" y="82.498"/><use xlink:href="#33" y="84.669"/><use xlink:href="#34" y="86.84"/><use xlink:href="#35" y="91.182"/></svg><svg x="2679"><use xlink:href="#a"/><use xlink:href="#b" x="4.996" y="93.328"/><use xlink:href="#1"/><use xlink:href="#2" y="4.342"/><use xlink:href="#3" y="8.684"/><use xlink:href="#4" y="10.855"/><use xlink:href="#5" y="15.197"/><use xlink:href="#6" y="17.368"/><use xlink:href="#7" y="19.539"/><use xlink:href="#8" y="23.881"/><use xlink:href="#9" y="26.052"/><use xlink:href="#10" y="28.223"/><use xlink:href="#11" y="32.565"/><use xlink:href="#12" y="34.736"/><use xlink:href="#13" y="36.907"/><use xlink:href="#14" y="39.078"/><use xlink:href="#15" y="41.249"/><use xlink:href="#16" y="43.42"/><use xlink:href="#17" y="47.762"/><use xlink:href="#18" y="49.933"/><use xlink:href="#19" y="52.104"/><use xlink:href="#20" y="54.275"/><use xlink:href="#21" y="56.446"/><use xlink:href="#22" y="58.617"/><use xlink:href="#23" y="60.788"/><use xlink:href="#24" y="62.959"/><use xlink:href="#25" y="65.13"/><use xlink:href="#26" y="69.472"/><use xlink:href="#27" y="71.643"/><use xlink:href="#28" y="73.814"/><use xlink:href="#29" y="75.985"/><use xlink:href="#30" y="78.156"/><use xlink:href="#31" y="80.327"/><use xlink:href="#32" y="82.498"/><use xlink:href="#33" y="84.669"/><use xlink:href="#34" y="86.84"/><use xlink:href="#35" y="91.182"/><use xlink:href="#36" y="93.353"/></svg><svg x="2820"><use xlink:href="#a"/><use xlink:href="#b" x="4.996" y="93.328"/><use xlink:href="#1"/><use xlink:href="#2" y="4.342"/><use xlink:href="#3" y="8.684"/><use xlink:href="#4" y="10.855"/><use xlink:href="#5" y="15.197"/><use xlink:href="#6" y="17.368"/><use xlink:href="#7" y="19.539"/><use xlink:href="#8" y="23.881"/><use xlink:href="#9" y="26.052"/><use xlink:href="#10" y="28.223"/><use xlink:href="#11" y="32.565"/><use xlink:href="#12" y="34.736"/><use xlink:href="#13" y="36.907"/><use xlink:href="#14" y="39.078"/><use xlink:href="#15" y="41.249"/><use xlink:href="#16" y="43.42"/><use xlink:href="#17" y="47.762"/><use xlink:href="#18" y="49.933"/><use xlink:href="#19" y="52.104"/><use xlink:href="#20" y="54.275"/><use xlink:href="#21" y="56.446"/><use xlink:href="#22" y="58.617"/><use xlink:href="#23" y="60.788"/><use xlink:href="#24" y="62.959"/><use xlink:href="#25" y="65.13"/><use xlink:href="#26" y="69.472"/><use xlink:href="#27" y="71.643"/><use xlink:href="#28" y="73.814"/><use xlink:href="#29" y="75.985"/><use xlink:href="#30" y="78.156"/><use xlink:href="#31" y="80.327"/><use xlink:href="#32" y="82.498"/><use xlink:href="#33" y="84.669"/><use xlink:href="#34" y="86.84"/><use xlink:href="#35" y="91.182"/><use xlink:href="#36" y="93.353"/></svg><svg x="2961"><use xlink:href="#a"/><use xlink:href="#b" x="4.996" y="93.328"/><use xlink:href="#1"/><use xlink:href="#2" y="4.342"/><use xlink:href="#3" y="8.684"/><use xlink:href="#4" y="10.855"/><use xlink:href="#5" y="15.197"/><use xlink:href="#6" y="17.368"/><use xlink:href="#7" y="19.539"/><use xlink:href="#8" y="23.881"/><use xlink:href="#9" y="26.052"/><use xlink:href="#10" y="28.223"/><use xlink:href="#11" y="32.565"/><use xlink:href="#12" y="34.736"/><use xlink:href="#13" y="36.907"/><use xlink:href="#14" y="39.078"/><use xlink:href="#15" y="41.249"/><use xlink:href="#16" y="43.42"/><use xlink:href="#17" y="47.762"/><use xlink:href="#18" y="49.933"/><use xlink:href="#19" y="52.104"/><use xlink:href="#20" y="54.275"/><use xlink:href="#21" y="56.446"/><use xlink:href="#22" y="58.617"/><use xlink:href="#23" y="60.788"/><use xlink:href="#24" y="62.959"/><use xlink:href="#25" y="65.13"/><use xlink:href="#26" y="69.472"/><use xlink:href="#27" y="71.643"/><use xlink:href="#28" y="73.814"/><use xlink:href="#29" y="75.985"/><use xlink:href="#30" y="78.156"/><use xlink:href="#31" y="80.327"/><use xlink:href="#32" y="82.498"/><use xlink:href="#33" y="84.669"/><use xlink:href="#34" y="86.84"/><use xlink:href="#35" y="91.182"/><use xlink:href="#36" y="93.353"/></svg><svg x="3102"><use xlink:href="#a"/><use xlink:href="#b" x="-.004" y="95.499"/><use xlink:href="#1"/><use xlink:href="#2" y="4.342"/><use xlink:href="#3" y="8.684"/><use xlink:href="#4" y="10.855"/><use xlink:href="#5" y="15.197"/><use xlink:href="#6" y="17.368"/><use xlink:href="#7" y="19.539"/><use xlink:href="#8" y="23.881"/><use xlink:href="#9" y="26.052"/><use xlink:href="#10" y="28.223"/><use xlink:href="#11" y="32.565"/><use xlink:href="#12" y="34.736"/><use xlink:href="#13" y="36.907"/><use xlink:href="#14" y="39.078"/><use xlink:href="#15" y="41.249"/><use xlink:href="#16" y="43.42"/><use xlink:href="#17" y="47.762"/><use xlink:href="#18" y="49.933"/><use xlink:href="#19" y="52.104"/><use xlink:href="#20" y="54.275"/><use xlink:href="#21" y="56.446"/><use xlink:href="#22" y="58.617"/><use xlink:href="#23" y="60.788"/><use xlink:href="#24" y="62.959"/><use xlink:href="#25" y="65.13"/><use xlink:href="#26" y="69.472"/><use xlink:href="#27" y="71.643"/><use xlink:href="#28" y="73.814"/><use xlink:href="#29" y="75.985"/><use xlink:href="#30" y="78.156"/><use xlink:href="#31" y="80.327"/><use xlink:href="#32" y="82.498"/><use xlink:href="#33" y="84.669"/><use xlink:href="#34" y="86.84"/><use xlink:href="#35" y="91.182"/><use xlink:href="#36" y="93.353"/></svg><svg x="3243"><use xlink:href="#a"/><use xlink:href="#b" x="-.004" y="95.499"/><use xlink:href="#1"/><use xlink:href="#2" y="4.342"/><use xlink:href="#3" y="8.684"/><use xlink:href="#4" y="10.855"/><use xlink:href="#5" y="15.197"/><use xlink:href="#6" y="17.368"/><use xlink:href="#7" y="19.539"/><use xlink:href="#8" y="23.881"/><use xlink:href="#9" y="26.052"/><use xlink:href="#10" y="28.223"/><use xlink:href="#11" y="32.565"/><use xlink:href="#12" y="34.736"/><use xlink:href="#13" y="36.907"/><use xlink:href="#14" y="39.078"/><use xlink:href="#15" y="41.249"/><use xlink:href="#16" y="43.42"/><use xlink:href="#17" y="47.762"/><use xlink:href="#18" y="49.933"/><use xlink:href="#19" y="52.104"/><use xlink:href="#20" y="54.275"/><use xlink:href="#21" y="56.446"/><use xlink:href="#22" y="58.617"/><use xlink:href="#23" y="60.788"/><use xlink:href="#24" y="62.959"/><use xlink:href="#25" y="65.13"/><use xlink:href="#26" y="69.472"/><use xlink:href="#27" y="71.643"/><use xlink:href="#28" y="73.814"/><use xlink:href="#29" y="75.985"/><use xlink:href="#30" y="78.156"/><use xlink:href="#31" y="80.327"/><use xlink:href="#32" y="82.498"/><use xlink:href="#33" y="84.669"/><use xlink:href="#34" y="86.84"/><use xlink:href="#35" y="91.182"/><use xlink:href="#36" y="93.353"/></svg></svg></g></g></svg></svg>